<mxfile host="app.diagrams.net" modified="2021-11-20T06:05:10.511Z" agent="5.0 (Macintosh; Intel Mac OS X 10_15_7) AppleWebKit/605.1.15 (KHTML, like Gecko) Version/14.1.2 Safari/605.1.15" etag="nK6rCsNOi9pFm5AflrP5" version="15.8.2" type="github">
  <diagram id="ghwDY5kjl9agutE1AJBL" name="Page-1">
    <mxGraphModel dx="1186" dy="769" grid="0" gridSize="10" guides="1" tooltips="1" connect="1" arrows="1" fold="1" page="1" pageScale="1" pageWidth="827" pageHeight="1169" math="0" shadow="0">
      <root>
        <mxCell id="0" />
        <mxCell id="1" parent="0" />
        <mxCell id="liIEnCD_2YWMoND7-9Kx-3" value="상품원부" style="shape=table;startSize=30;container=1;collapsible=1;childLayout=tableLayout;fixedRows=1;rowLines=0;fontStyle=1;align=center;resizeLast=1;" vertex="1" parent="1">
          <mxGeometry x="40" y="50" width="180" height="160" as="geometry" />
        </mxCell>
        <mxCell id="liIEnCD_2YWMoND7-9Kx-4" value="" style="shape=partialRectangle;collapsible=0;dropTarget=0;pointerEvents=0;fillColor=none;top=0;left=0;bottom=1;right=0;points=[[0,0.5],[1,0.5]];portConstraint=eastwest;" vertex="1" parent="liIEnCD_2YWMoND7-9Kx-3">
          <mxGeometry y="30" width="180" height="30" as="geometry" />
        </mxCell>
        <mxCell id="liIEnCD_2YWMoND7-9Kx-5" value="PK" style="shape=partialRectangle;connectable=0;fillColor=none;top=0;left=0;bottom=0;right=0;fontStyle=1;overflow=hidden;" vertex="1" parent="liIEnCD_2YWMoND7-9Kx-4">
          <mxGeometry width="30" height="30" as="geometry">
            <mxRectangle width="30" height="30" as="alternateBounds" />
          </mxGeometry>
        </mxCell>
        <mxCell id="liIEnCD_2YWMoND7-9Kx-6" value="상품코드" style="shape=partialRectangle;connectable=0;fillColor=none;top=0;left=0;bottom=0;right=0;align=left;spacingLeft=6;fontStyle=5;overflow=hidden;" vertex="1" parent="liIEnCD_2YWMoND7-9Kx-4">
          <mxGeometry x="30" width="150" height="30" as="geometry">
            <mxRectangle width="150" height="30" as="alternateBounds" />
          </mxGeometry>
        </mxCell>
        <mxCell id="liIEnCD_2YWMoND7-9Kx-7" value="" style="shape=partialRectangle;collapsible=0;dropTarget=0;pointerEvents=0;fillColor=none;top=0;left=0;bottom=0;right=0;points=[[0,0.5],[1,0.5]];portConstraint=eastwest;" vertex="1" parent="liIEnCD_2YWMoND7-9Kx-3">
          <mxGeometry y="60" width="180" height="30" as="geometry" />
        </mxCell>
        <mxCell id="liIEnCD_2YWMoND7-9Kx-8" value="" style="shape=partialRectangle;connectable=0;fillColor=none;top=0;left=0;bottom=0;right=0;editable=1;overflow=hidden;" vertex="1" parent="liIEnCD_2YWMoND7-9Kx-7">
          <mxGeometry width="30" height="30" as="geometry">
            <mxRectangle width="30" height="30" as="alternateBounds" />
          </mxGeometry>
        </mxCell>
        <mxCell id="liIEnCD_2YWMoND7-9Kx-9" value="상품명" style="shape=partialRectangle;connectable=0;fillColor=none;top=0;left=0;bottom=0;right=0;align=left;spacingLeft=6;overflow=hidden;" vertex="1" parent="liIEnCD_2YWMoND7-9Kx-7">
          <mxGeometry x="30" width="150" height="30" as="geometry">
            <mxRectangle width="150" height="30" as="alternateBounds" />
          </mxGeometry>
        </mxCell>
        <mxCell id="liIEnCD_2YWMoND7-9Kx-10" value="" style="shape=partialRectangle;collapsible=0;dropTarget=0;pointerEvents=0;fillColor=none;top=0;left=0;bottom=0;right=0;points=[[0,0.5],[1,0.5]];portConstraint=eastwest;" vertex="1" parent="liIEnCD_2YWMoND7-9Kx-3">
          <mxGeometry y="90" width="180" height="30" as="geometry" />
        </mxCell>
        <mxCell id="liIEnCD_2YWMoND7-9Kx-11" value="" style="shape=partialRectangle;connectable=0;fillColor=none;top=0;left=0;bottom=0;right=0;editable=1;overflow=hidden;" vertex="1" parent="liIEnCD_2YWMoND7-9Kx-10">
          <mxGeometry width="30" height="30" as="geometry">
            <mxRectangle width="30" height="30" as="alternateBounds" />
          </mxGeometry>
        </mxCell>
        <mxCell id="liIEnCD_2YWMoND7-9Kx-12" value="최대가입기간" style="shape=partialRectangle;connectable=0;fillColor=none;top=0;left=0;bottom=0;right=0;align=left;spacingLeft=6;overflow=hidden;" vertex="1" parent="liIEnCD_2YWMoND7-9Kx-10">
          <mxGeometry x="30" width="150" height="30" as="geometry">
            <mxRectangle width="150" height="30" as="alternateBounds" />
          </mxGeometry>
        </mxCell>
        <mxCell id="liIEnCD_2YWMoND7-9Kx-13" value="" style="shape=partialRectangle;collapsible=0;dropTarget=0;pointerEvents=0;fillColor=none;top=0;left=0;bottom=0;right=0;points=[[0,0.5],[1,0.5]];portConstraint=eastwest;" vertex="1" parent="liIEnCD_2YWMoND7-9Kx-3">
          <mxGeometry y="120" width="180" height="30" as="geometry" />
        </mxCell>
        <mxCell id="liIEnCD_2YWMoND7-9Kx-14" value="" style="shape=partialRectangle;connectable=0;fillColor=none;top=0;left=0;bottom=0;right=0;editable=1;overflow=hidden;" vertex="1" parent="liIEnCD_2YWMoND7-9Kx-13">
          <mxGeometry width="30" height="30" as="geometry">
            <mxRectangle width="30" height="30" as="alternateBounds" />
          </mxGeometry>
        </mxCell>
        <mxCell id="liIEnCD_2YWMoND7-9Kx-15" value="" style="shape=partialRectangle;connectable=0;fillColor=none;top=0;left=0;bottom=0;right=0;align=left;spacingLeft=6;overflow=hidden;" vertex="1" parent="liIEnCD_2YWMoND7-9Kx-13">
          <mxGeometry x="30" width="150" height="30" as="geometry">
            <mxRectangle width="150" height="30" as="alternateBounds" />
          </mxGeometry>
        </mxCell>
        <mxCell id="liIEnCD_2YWMoND7-9Kx-16" value="상품담보정보" style="shape=table;startSize=28;container=1;collapsible=1;childLayout=tableLayout;fixedRows=1;rowLines=0;fontStyle=1;align=center;resizeLast=1;" vertex="1" parent="1">
          <mxGeometry x="329" y="50" width="180" height="148.25" as="geometry" />
        </mxCell>
        <mxCell id="liIEnCD_2YWMoND7-9Kx-17" value="" style="shape=partialRectangle;collapsible=0;dropTarget=0;pointerEvents=0;fillColor=none;top=0;left=0;bottom=1;right=0;points=[[0,0.5],[1,0.5]];portConstraint=eastwest;" vertex="1" parent="liIEnCD_2YWMoND7-9Kx-16">
          <mxGeometry y="28" width="180" height="49" as="geometry" />
        </mxCell>
        <mxCell id="liIEnCD_2YWMoND7-9Kx-18" value="PK" style="shape=partialRectangle;connectable=0;fillColor=none;top=0;left=0;bottom=0;right=0;fontStyle=1;overflow=hidden;" vertex="1" parent="liIEnCD_2YWMoND7-9Kx-17">
          <mxGeometry width="30" height="49" as="geometry">
            <mxRectangle width="30" height="49" as="alternateBounds" />
          </mxGeometry>
        </mxCell>
        <mxCell id="liIEnCD_2YWMoND7-9Kx-19" value="상품코드&#xa;담보코드" style="shape=partialRectangle;connectable=0;fillColor=none;top=0;left=0;bottom=0;right=0;align=left;spacingLeft=6;fontStyle=5;overflow=hidden;" vertex="1" parent="liIEnCD_2YWMoND7-9Kx-17">
          <mxGeometry x="30" width="150" height="49" as="geometry">
            <mxRectangle width="150" height="49" as="alternateBounds" />
          </mxGeometry>
        </mxCell>
        <mxCell id="liIEnCD_2YWMoND7-9Kx-20" value="" style="shape=partialRectangle;collapsible=0;dropTarget=0;pointerEvents=0;fillColor=none;top=0;left=0;bottom=0;right=0;points=[[0,0.5],[1,0.5]];portConstraint=eastwest;" vertex="1" parent="liIEnCD_2YWMoND7-9Kx-16">
          <mxGeometry y="77" width="180" height="30" as="geometry" />
        </mxCell>
        <mxCell id="liIEnCD_2YWMoND7-9Kx-21" value="" style="shape=partialRectangle;connectable=0;fillColor=none;top=0;left=0;bottom=0;right=0;editable=1;overflow=hidden;" vertex="1" parent="liIEnCD_2YWMoND7-9Kx-20">
          <mxGeometry width="30" height="30" as="geometry">
            <mxRectangle width="30" height="30" as="alternateBounds" />
          </mxGeometry>
        </mxCell>
        <mxCell id="liIEnCD_2YWMoND7-9Kx-22" value="담보명" style="shape=partialRectangle;connectable=0;fillColor=none;top=0;left=0;bottom=0;right=0;align=left;spacingLeft=6;overflow=hidden;" vertex="1" parent="liIEnCD_2YWMoND7-9Kx-20">
          <mxGeometry x="30" width="150" height="30" as="geometry">
            <mxRectangle width="150" height="30" as="alternateBounds" />
          </mxGeometry>
        </mxCell>
        <mxCell id="liIEnCD_2YWMoND7-9Kx-23" value="" style="shape=partialRectangle;collapsible=0;dropTarget=0;pointerEvents=0;fillColor=none;top=0;left=0;bottom=0;right=0;points=[[0,0.5],[1,0.5]];portConstraint=eastwest;" vertex="1" parent="liIEnCD_2YWMoND7-9Kx-16">
          <mxGeometry y="107" width="180" height="30" as="geometry" />
        </mxCell>
        <mxCell id="liIEnCD_2YWMoND7-9Kx-24" value="" style="shape=partialRectangle;connectable=0;fillColor=none;top=0;left=0;bottom=0;right=0;editable=1;overflow=hidden;" vertex="1" parent="liIEnCD_2YWMoND7-9Kx-23">
          <mxGeometry width="30" height="30" as="geometry">
            <mxRectangle width="30" height="30" as="alternateBounds" />
          </mxGeometry>
        </mxCell>
        <mxCell id="liIEnCD_2YWMoND7-9Kx-25" value="보험료계산 기준금액" style="shape=partialRectangle;connectable=0;fillColor=none;top=0;left=0;bottom=0;right=0;align=left;spacingLeft=6;overflow=hidden;" vertex="1" parent="liIEnCD_2YWMoND7-9Kx-23">
          <mxGeometry x="30" width="150" height="30" as="geometry">
            <mxRectangle width="150" height="30" as="alternateBounds" />
          </mxGeometry>
        </mxCell>
        <mxCell id="liIEnCD_2YWMoND7-9Kx-31" value="계약원부" style="shape=table;startSize=30;container=1;collapsible=1;childLayout=tableLayout;fixedRows=1;rowLines=0;fontStyle=1;align=center;resizeLast=1;" vertex="1" parent="1">
          <mxGeometry x="40" y="285" width="177.75" height="160" as="geometry" />
        </mxCell>
        <mxCell id="liIEnCD_2YWMoND7-9Kx-32" value="" style="shape=partialRectangle;collapsible=0;dropTarget=0;pointerEvents=0;fillColor=none;top=0;left=0;bottom=1;right=0;points=[[0,0.5],[1,0.5]];portConstraint=eastwest;" vertex="1" parent="liIEnCD_2YWMoND7-9Kx-31">
          <mxGeometry y="30" width="177.75" height="30" as="geometry" />
        </mxCell>
        <mxCell id="liIEnCD_2YWMoND7-9Kx-33" value="PK" style="shape=partialRectangle;connectable=0;fillColor=none;top=0;left=0;bottom=0;right=0;fontStyle=1;overflow=hidden;" vertex="1" parent="liIEnCD_2YWMoND7-9Kx-32">
          <mxGeometry width="30" height="30" as="geometry">
            <mxRectangle width="30" height="30" as="alternateBounds" />
          </mxGeometry>
        </mxCell>
        <mxCell id="liIEnCD_2YWMoND7-9Kx-34" value="증권번호" style="shape=partialRectangle;connectable=0;fillColor=none;top=0;left=0;bottom=0;right=0;align=left;spacingLeft=6;fontStyle=5;overflow=hidden;" vertex="1" parent="liIEnCD_2YWMoND7-9Kx-32">
          <mxGeometry x="30" width="147.75" height="30" as="geometry">
            <mxRectangle width="147.75" height="30" as="alternateBounds" />
          </mxGeometry>
        </mxCell>
        <mxCell id="liIEnCD_2YWMoND7-9Kx-35" value="" style="shape=partialRectangle;collapsible=0;dropTarget=0;pointerEvents=0;fillColor=none;top=0;left=0;bottom=0;right=0;points=[[0,0.5],[1,0.5]];portConstraint=eastwest;" vertex="1" parent="liIEnCD_2YWMoND7-9Kx-31">
          <mxGeometry y="60" width="177.75" height="30" as="geometry" />
        </mxCell>
        <mxCell id="liIEnCD_2YWMoND7-9Kx-36" value="" style="shape=partialRectangle;connectable=0;fillColor=none;top=0;left=0;bottom=0;right=0;editable=1;overflow=hidden;" vertex="1" parent="liIEnCD_2YWMoND7-9Kx-35">
          <mxGeometry width="30" height="30" as="geometry">
            <mxRectangle width="30" height="30" as="alternateBounds" />
          </mxGeometry>
        </mxCell>
        <mxCell id="liIEnCD_2YWMoND7-9Kx-37" value="상품코드(FK)" style="shape=partialRectangle;connectable=0;fillColor=none;top=0;left=0;bottom=0;right=0;align=left;spacingLeft=6;overflow=hidden;" vertex="1" parent="liIEnCD_2YWMoND7-9Kx-35">
          <mxGeometry x="30" width="147.75" height="30" as="geometry">
            <mxRectangle width="147.75" height="30" as="alternateBounds" />
          </mxGeometry>
        </mxCell>
        <mxCell id="liIEnCD_2YWMoND7-9Kx-38" value="" style="shape=partialRectangle;collapsible=0;dropTarget=0;pointerEvents=0;fillColor=none;top=0;left=0;bottom=0;right=0;points=[[0,0.5],[1,0.5]];portConstraint=eastwest;" vertex="1" parent="liIEnCD_2YWMoND7-9Kx-31">
          <mxGeometry y="90" width="177.75" height="30" as="geometry" />
        </mxCell>
        <mxCell id="liIEnCD_2YWMoND7-9Kx-39" value="" style="shape=partialRectangle;connectable=0;fillColor=none;top=0;left=0;bottom=0;right=0;editable=1;overflow=hidden;" vertex="1" parent="liIEnCD_2YWMoND7-9Kx-38">
          <mxGeometry width="30" height="30" as="geometry">
            <mxRectangle width="30" height="30" as="alternateBounds" />
          </mxGeometry>
        </mxCell>
        <mxCell id="liIEnCD_2YWMoND7-9Kx-40" value="보험시작일자" style="shape=partialRectangle;connectable=0;fillColor=none;top=0;left=0;bottom=0;right=0;align=left;spacingLeft=6;overflow=hidden;" vertex="1" parent="liIEnCD_2YWMoND7-9Kx-38">
          <mxGeometry x="30" width="147.75" height="30" as="geometry">
            <mxRectangle width="147.75" height="30" as="alternateBounds" />
          </mxGeometry>
        </mxCell>
        <mxCell id="liIEnCD_2YWMoND7-9Kx-41" value="" style="shape=partialRectangle;collapsible=0;dropTarget=0;pointerEvents=0;fillColor=none;top=0;left=0;bottom=0;right=0;points=[[0,0.5],[1,0.5]];portConstraint=eastwest;" vertex="1" parent="liIEnCD_2YWMoND7-9Kx-31">
          <mxGeometry y="120" width="177.75" height="30" as="geometry" />
        </mxCell>
        <mxCell id="liIEnCD_2YWMoND7-9Kx-42" value="" style="shape=partialRectangle;connectable=0;fillColor=none;top=0;left=0;bottom=0;right=0;editable=1;overflow=hidden;" vertex="1" parent="liIEnCD_2YWMoND7-9Kx-41">
          <mxGeometry width="30" height="30" as="geometry">
            <mxRectangle width="30" height="30" as="alternateBounds" />
          </mxGeometry>
        </mxCell>
        <mxCell id="liIEnCD_2YWMoND7-9Kx-43" value="계약최종상태코드" style="shape=partialRectangle;connectable=0;fillColor=none;top=0;left=0;bottom=0;right=0;align=left;spacingLeft=6;overflow=hidden;" vertex="1" parent="liIEnCD_2YWMoND7-9Kx-41">
          <mxGeometry x="30" width="147.75" height="30" as="geometry">
            <mxRectangle width="147.75" height="30" as="alternateBounds" />
          </mxGeometry>
        </mxCell>
        <mxCell id="liIEnCD_2YWMoND7-9Kx-44" value="계약변경원부" style="shape=table;startSize=30;container=1;collapsible=1;childLayout=tableLayout;fixedRows=1;rowLines=0;fontStyle=1;align=center;resizeLast=1;" vertex="1" parent="1">
          <mxGeometry x="329" y="283" width="180" height="168.75" as="geometry" />
        </mxCell>
        <mxCell id="liIEnCD_2YWMoND7-9Kx-45" value="" style="shape=partialRectangle;collapsible=0;dropTarget=0;pointerEvents=0;fillColor=none;top=0;left=0;bottom=1;right=0;points=[[0,0.5],[1,0.5]];portConstraint=eastwest;" vertex="1" parent="liIEnCD_2YWMoND7-9Kx-44">
          <mxGeometry y="30" width="180" height="39" as="geometry" />
        </mxCell>
        <mxCell id="liIEnCD_2YWMoND7-9Kx-46" value="PK" style="shape=partialRectangle;connectable=0;fillColor=none;top=0;left=0;bottom=0;right=0;fontStyle=1;overflow=hidden;" vertex="1" parent="liIEnCD_2YWMoND7-9Kx-45">
          <mxGeometry width="30" height="39" as="geometry">
            <mxRectangle width="30" height="39" as="alternateBounds" />
          </mxGeometry>
        </mxCell>
        <mxCell id="liIEnCD_2YWMoND7-9Kx-47" value="증권번호&#xa;변경회차" style="shape=partialRectangle;connectable=0;fillColor=none;top=0;left=0;bottom=0;right=0;align=left;spacingLeft=6;fontStyle=5;overflow=hidden;" vertex="1" parent="liIEnCD_2YWMoND7-9Kx-45">
          <mxGeometry x="30" width="150" height="39" as="geometry">
            <mxRectangle width="150" height="39" as="alternateBounds" />
          </mxGeometry>
        </mxCell>
        <mxCell id="liIEnCD_2YWMoND7-9Kx-48" value="" style="shape=partialRectangle;collapsible=0;dropTarget=0;pointerEvents=0;fillColor=none;top=0;left=0;bottom=0;right=0;points=[[0,0.5],[1,0.5]];portConstraint=eastwest;" vertex="1" parent="liIEnCD_2YWMoND7-9Kx-44">
          <mxGeometry y="69" width="180" height="30" as="geometry" />
        </mxCell>
        <mxCell id="liIEnCD_2YWMoND7-9Kx-49" value="" style="shape=partialRectangle;connectable=0;fillColor=none;top=0;left=0;bottom=0;right=0;editable=1;overflow=hidden;" vertex="1" parent="liIEnCD_2YWMoND7-9Kx-48">
          <mxGeometry width="30" height="30" as="geometry">
            <mxRectangle width="30" height="30" as="alternateBounds" />
          </mxGeometry>
        </mxCell>
        <mxCell id="liIEnCD_2YWMoND7-9Kx-50" value="보험종료일자" style="shape=partialRectangle;connectable=0;fillColor=none;top=0;left=0;bottom=0;right=0;align=left;spacingLeft=6;overflow=hidden;" vertex="1" parent="liIEnCD_2YWMoND7-9Kx-48">
          <mxGeometry x="30" width="150" height="30" as="geometry">
            <mxRectangle width="150" height="30" as="alternateBounds" />
          </mxGeometry>
        </mxCell>
        <mxCell id="liIEnCD_2YWMoND7-9Kx-51" value="" style="shape=partialRectangle;collapsible=0;dropTarget=0;pointerEvents=0;fillColor=none;top=0;left=0;bottom=0;right=0;points=[[0,0.5],[1,0.5]];portConstraint=eastwest;" vertex="1" parent="liIEnCD_2YWMoND7-9Kx-44">
          <mxGeometry y="99" width="180" height="30" as="geometry" />
        </mxCell>
        <mxCell id="liIEnCD_2YWMoND7-9Kx-52" value="" style="shape=partialRectangle;connectable=0;fillColor=none;top=0;left=0;bottom=0;right=0;editable=1;overflow=hidden;" vertex="1" parent="liIEnCD_2YWMoND7-9Kx-51">
          <mxGeometry width="30" height="30" as="geometry">
            <mxRectangle width="30" height="30" as="alternateBounds" />
          </mxGeometry>
        </mxCell>
        <mxCell id="liIEnCD_2YWMoND7-9Kx-53" value="가입기간" style="shape=partialRectangle;connectable=0;fillColor=none;top=0;left=0;bottom=0;right=0;align=left;spacingLeft=6;overflow=hidden;" vertex="1" parent="liIEnCD_2YWMoND7-9Kx-51">
          <mxGeometry x="30" width="150" height="30" as="geometry">
            <mxRectangle width="150" height="30" as="alternateBounds" />
          </mxGeometry>
        </mxCell>
        <mxCell id="liIEnCD_2YWMoND7-9Kx-54" value="" style="shape=partialRectangle;collapsible=0;dropTarget=0;pointerEvents=0;fillColor=none;top=0;left=0;bottom=0;right=0;points=[[0,0.5],[1,0.5]];portConstraint=eastwest;" vertex="1" parent="liIEnCD_2YWMoND7-9Kx-44">
          <mxGeometry y="129" width="180" height="30" as="geometry" />
        </mxCell>
        <mxCell id="liIEnCD_2YWMoND7-9Kx-55" value="" style="shape=partialRectangle;connectable=0;fillColor=none;top=0;left=0;bottom=0;right=0;editable=1;overflow=hidden;" vertex="1" parent="liIEnCD_2YWMoND7-9Kx-54">
          <mxGeometry width="30" height="30" as="geometry">
            <mxRectangle width="30" height="30" as="alternateBounds" />
          </mxGeometry>
        </mxCell>
        <mxCell id="liIEnCD_2YWMoND7-9Kx-56" value="총보험료" style="shape=partialRectangle;connectable=0;fillColor=none;top=0;left=0;bottom=0;right=0;align=left;spacingLeft=6;overflow=hidden;" vertex="1" parent="liIEnCD_2YWMoND7-9Kx-54">
          <mxGeometry x="30" width="150" height="30" as="geometry">
            <mxRectangle width="150" height="30" as="alternateBounds" />
          </mxGeometry>
        </mxCell>
        <mxCell id="liIEnCD_2YWMoND7-9Kx-58" value="" style="endArrow=none;html=1;rounded=0;dashed=1;dashPattern=1 2;exitX=0.5;exitY=1;exitDx=0;exitDy=0;entryX=0.5;entryY=0;entryDx=0;entryDy=0;" edge="1" parent="1" source="liIEnCD_2YWMoND7-9Kx-3" target="liIEnCD_2YWMoND7-9Kx-31">
          <mxGeometry relative="1" as="geometry">
            <mxPoint x="-49" y="245" as="sourcePoint" />
            <mxPoint x="111" y="245" as="targetPoint" />
          </mxGeometry>
        </mxCell>
        <mxCell id="liIEnCD_2YWMoND7-9Kx-59" value="N" style="resizable=0;html=1;align=right;verticalAlign=bottom;" connectable="0" vertex="1" parent="liIEnCD_2YWMoND7-9Kx-58">
          <mxGeometry x="1" relative="1" as="geometry" />
        </mxCell>
        <mxCell id="liIEnCD_2YWMoND7-9Kx-62" value="계약상태이력정보" style="shape=table;startSize=30;container=1;collapsible=1;childLayout=tableLayout;fixedRows=1;rowLines=0;fontStyle=1;align=center;resizeLast=1;" vertex="1" parent="1">
          <mxGeometry x="329" y="476" width="180" height="129" as="geometry" />
        </mxCell>
        <mxCell id="liIEnCD_2YWMoND7-9Kx-63" value="" style="shape=partialRectangle;collapsible=0;dropTarget=0;pointerEvents=0;fillColor=none;top=0;left=0;bottom=1;right=0;points=[[0,0.5],[1,0.5]];portConstraint=eastwest;" vertex="1" parent="liIEnCD_2YWMoND7-9Kx-62">
          <mxGeometry y="30" width="180" height="43" as="geometry" />
        </mxCell>
        <mxCell id="liIEnCD_2YWMoND7-9Kx-64" value="PK" style="shape=partialRectangle;connectable=0;fillColor=none;top=0;left=0;bottom=0;right=0;fontStyle=1;overflow=hidden;" vertex="1" parent="liIEnCD_2YWMoND7-9Kx-63">
          <mxGeometry width="30" height="43" as="geometry">
            <mxRectangle width="30" height="43" as="alternateBounds" />
          </mxGeometry>
        </mxCell>
        <mxCell id="liIEnCD_2YWMoND7-9Kx-65" value="증권번호&#xa;계약상태일련번호" style="shape=partialRectangle;connectable=0;fillColor=none;top=0;left=0;bottom=0;right=0;align=left;spacingLeft=6;fontStyle=5;overflow=hidden;" vertex="1" parent="liIEnCD_2YWMoND7-9Kx-63">
          <mxGeometry x="30" width="150" height="43" as="geometry">
            <mxRectangle width="150" height="43" as="alternateBounds" />
          </mxGeometry>
        </mxCell>
        <mxCell id="liIEnCD_2YWMoND7-9Kx-66" value="" style="shape=partialRectangle;collapsible=0;dropTarget=0;pointerEvents=0;fillColor=none;top=0;left=0;bottom=0;right=0;points=[[0,0.5],[1,0.5]];portConstraint=eastwest;" vertex="1" parent="liIEnCD_2YWMoND7-9Kx-62">
          <mxGeometry y="73" width="180" height="30" as="geometry" />
        </mxCell>
        <mxCell id="liIEnCD_2YWMoND7-9Kx-67" value="" style="shape=partialRectangle;connectable=0;fillColor=none;top=0;left=0;bottom=0;right=0;editable=1;overflow=hidden;" vertex="1" parent="liIEnCD_2YWMoND7-9Kx-66">
          <mxGeometry width="30" height="30" as="geometry">
            <mxRectangle width="30" height="30" as="alternateBounds" />
          </mxGeometry>
        </mxCell>
        <mxCell id="liIEnCD_2YWMoND7-9Kx-68" value="계약상태코드" style="shape=partialRectangle;connectable=0;fillColor=none;top=0;left=0;bottom=0;right=0;align=left;spacingLeft=6;overflow=hidden;" vertex="1" parent="liIEnCD_2YWMoND7-9Kx-66">
          <mxGeometry x="30" width="150" height="30" as="geometry">
            <mxRectangle width="150" height="30" as="alternateBounds" />
          </mxGeometry>
        </mxCell>
        <mxCell id="liIEnCD_2YWMoND7-9Kx-69" value="" style="shape=partialRectangle;collapsible=0;dropTarget=0;pointerEvents=0;fillColor=none;top=0;left=0;bottom=0;right=0;points=[[0,0.5],[1,0.5]];portConstraint=eastwest;" vertex="1" parent="liIEnCD_2YWMoND7-9Kx-62">
          <mxGeometry y="103" width="180" height="26" as="geometry" />
        </mxCell>
        <mxCell id="liIEnCD_2YWMoND7-9Kx-70" value="" style="shape=partialRectangle;connectable=0;fillColor=none;top=0;left=0;bottom=0;right=0;editable=1;overflow=hidden;" vertex="1" parent="liIEnCD_2YWMoND7-9Kx-69">
          <mxGeometry width="30" height="26" as="geometry">
            <mxRectangle width="30" height="26" as="alternateBounds" />
          </mxGeometry>
        </mxCell>
        <mxCell id="liIEnCD_2YWMoND7-9Kx-71" value="계약상태발생일자" style="shape=partialRectangle;connectable=0;fillColor=none;top=0;left=0;bottom=0;right=0;align=left;spacingLeft=6;overflow=hidden;" vertex="1" parent="liIEnCD_2YWMoND7-9Kx-69">
          <mxGeometry x="30" width="150" height="26" as="geometry">
            <mxRectangle width="150" height="26" as="alternateBounds" />
          </mxGeometry>
        </mxCell>
        <mxCell id="liIEnCD_2YWMoND7-9Kx-77" value="" style="edgeStyle=entityRelationEdgeStyle;fontSize=12;html=1;endArrow=ERzeroToMany;endFill=1;rounded=0;entryX=0;entryY=0.5;entryDx=0;entryDy=0;exitX=1;exitY=0.167;exitDx=0;exitDy=0;exitPerimeter=0;" edge="1" parent="1" source="liIEnCD_2YWMoND7-9Kx-10" target="liIEnCD_2YWMoND7-9Kx-20">
          <mxGeometry width="100" height="100" relative="1" as="geometry">
            <mxPoint x="195" y="198.25" as="sourcePoint" />
            <mxPoint x="319" y="139" as="targetPoint" />
          </mxGeometry>
        </mxCell>
        <mxCell id="liIEnCD_2YWMoND7-9Kx-78" value="" style="edgeStyle=entityRelationEdgeStyle;fontSize=12;html=1;endArrow=ERzeroToMany;endFill=1;rounded=0;entryX=0;entryY=0.5;entryDx=0;entryDy=0;exitX=1.001;exitY=0.8;exitDx=0;exitDy=0;exitPerimeter=0;" edge="1" parent="1" source="liIEnCD_2YWMoND7-9Kx-35" target="liIEnCD_2YWMoND7-9Kx-48">
          <mxGeometry width="100" height="100" relative="1" as="geometry">
            <mxPoint x="230" y="155.01" as="sourcePoint" />
            <mxPoint x="339" y="152" as="targetPoint" />
          </mxGeometry>
        </mxCell>
        <mxCell id="liIEnCD_2YWMoND7-9Kx-79" value="" style="edgeStyle=entityRelationEdgeStyle;fontSize=12;html=1;endArrow=ERzeroToMany;endFill=1;rounded=0;entryX=0;entryY=0.5;entryDx=0;entryDy=0;exitX=0.5;exitY=1;exitDx=0;exitDy=0;" edge="1" parent="1" source="liIEnCD_2YWMoND7-9Kx-31" target="liIEnCD_2YWMoND7-9Kx-66">
          <mxGeometry width="100" height="100" relative="1" as="geometry">
            <mxPoint x="227.92775000000006" y="379" as="sourcePoint" />
            <mxPoint x="339" y="377" as="targetPoint" />
          </mxGeometry>
        </mxCell>
        <mxCell id="liIEnCD_2YWMoND7-9Kx-80" value="계약담보정보" style="shape=table;startSize=30;container=1;collapsible=1;childLayout=tableLayout;fixedRows=1;rowLines=0;fontStyle=1;align=center;resizeLast=1;" vertex="1" parent="1">
          <mxGeometry x="579" y="285" width="180" height="160.25" as="geometry" />
        </mxCell>
        <mxCell id="liIEnCD_2YWMoND7-9Kx-81" value="" style="shape=partialRectangle;collapsible=0;dropTarget=0;pointerEvents=0;fillColor=none;top=0;left=0;bottom=1;right=0;points=[[0,0.5],[1,0.5]];portConstraint=eastwest;" vertex="1" parent="liIEnCD_2YWMoND7-9Kx-80">
          <mxGeometry y="30" width="180" height="57" as="geometry" />
        </mxCell>
        <mxCell id="liIEnCD_2YWMoND7-9Kx-82" value="PK" style="shape=partialRectangle;connectable=0;fillColor=none;top=0;left=0;bottom=0;right=0;fontStyle=1;overflow=hidden;" vertex="1" parent="liIEnCD_2YWMoND7-9Kx-81">
          <mxGeometry width="30" height="57" as="geometry">
            <mxRectangle width="30" height="57" as="alternateBounds" />
          </mxGeometry>
        </mxCell>
        <mxCell id="liIEnCD_2YWMoND7-9Kx-83" value="증권번호&#xa;변경회차&#xa;담보코드" style="shape=partialRectangle;connectable=0;fillColor=none;top=0;left=0;bottom=0;right=0;align=left;spacingLeft=6;fontStyle=5;overflow=hidden;" vertex="1" parent="liIEnCD_2YWMoND7-9Kx-81">
          <mxGeometry x="30" width="150" height="57" as="geometry">
            <mxRectangle width="150" height="57" as="alternateBounds" />
          </mxGeometry>
        </mxCell>
        <mxCell id="liIEnCD_2YWMoND7-9Kx-84" value="" style="shape=partialRectangle;collapsible=0;dropTarget=0;pointerEvents=0;fillColor=none;top=0;left=0;bottom=0;right=0;points=[[0,0.5],[1,0.5]];portConstraint=eastwest;" vertex="1" parent="liIEnCD_2YWMoND7-9Kx-80">
          <mxGeometry y="87" width="180" height="30" as="geometry" />
        </mxCell>
        <mxCell id="liIEnCD_2YWMoND7-9Kx-85" value="" style="shape=partialRectangle;connectable=0;fillColor=none;top=0;left=0;bottom=0;right=0;editable=1;overflow=hidden;" vertex="1" parent="liIEnCD_2YWMoND7-9Kx-84">
          <mxGeometry width="30" height="30" as="geometry">
            <mxRectangle width="30" height="30" as="alternateBounds" />
          </mxGeometry>
        </mxCell>
        <mxCell id="liIEnCD_2YWMoND7-9Kx-86" value="가입금액" style="shape=partialRectangle;connectable=0;fillColor=none;top=0;left=0;bottom=0;right=0;align=left;spacingLeft=6;overflow=hidden;" vertex="1" parent="liIEnCD_2YWMoND7-9Kx-84">
          <mxGeometry x="30" width="150" height="30" as="geometry">
            <mxRectangle width="150" height="30" as="alternateBounds" />
          </mxGeometry>
        </mxCell>
        <mxCell id="liIEnCD_2YWMoND7-9Kx-87" value="" style="shape=partialRectangle;collapsible=0;dropTarget=0;pointerEvents=0;fillColor=none;top=0;left=0;bottom=0;right=0;points=[[0,0.5],[1,0.5]];portConstraint=eastwest;" vertex="1" parent="liIEnCD_2YWMoND7-9Kx-80">
          <mxGeometry y="117" width="180" height="34" as="geometry" />
        </mxCell>
        <mxCell id="liIEnCD_2YWMoND7-9Kx-88" value="" style="shape=partialRectangle;connectable=0;fillColor=none;top=0;left=0;bottom=0;right=0;editable=1;overflow=hidden;" vertex="1" parent="liIEnCD_2YWMoND7-9Kx-87">
          <mxGeometry width="30" height="34" as="geometry">
            <mxRectangle width="30" height="34" as="alternateBounds" />
          </mxGeometry>
        </mxCell>
        <mxCell id="liIEnCD_2YWMoND7-9Kx-89" value="보험료" style="shape=partialRectangle;connectable=0;fillColor=none;top=0;left=0;bottom=0;right=0;align=left;spacingLeft=6;overflow=hidden;" vertex="1" parent="liIEnCD_2YWMoND7-9Kx-87">
          <mxGeometry x="30" width="150" height="34" as="geometry">
            <mxRectangle width="150" height="34" as="alternateBounds" />
          </mxGeometry>
        </mxCell>
        <mxCell id="liIEnCD_2YWMoND7-9Kx-93" value="" style="edgeStyle=entityRelationEdgeStyle;fontSize=12;html=1;endArrow=ERzeroToMany;endFill=1;rounded=0;entryX=0;entryY=0.5;entryDx=0;entryDy=0;exitX=0.994;exitY=0.167;exitDx=0;exitDy=0;exitPerimeter=0;" edge="1" parent="1" source="liIEnCD_2YWMoND7-9Kx-51" target="liIEnCD_2YWMoND7-9Kx-84">
          <mxGeometry width="100" height="100" relative="1" as="geometry">
            <mxPoint x="460" y="218" as="sourcePoint" />
            <mxPoint x="471" y="267" as="targetPoint" />
          </mxGeometry>
        </mxCell>
      </root>
    </mxGraphModel>
  </diagram>
</mxfile>
